<?xml version="1.0" encoding="UTF-8"?>
<svg id="Capa_2" data-name="Capa 2" xmlns="http://www.w3.org/2000/svg" viewBox="0 0 160.98 584.38">
  <defs>
    <style>
      .cls-1 {
        fill: #bf4e27;
        stroke-width: 0px;
      }
    </style>
  </defs>
  <g id="Capa_2-2" data-name="Capa 2">
    <path class="cls-1" d="M148.55,220.65c11.8-18.8,18.8-42.4,4.2-61.8-8.1-10.6-18.9-19.4-29-28-10.7-9.1-21.6-18-31.2-28.4-11.4-12.3-20.9-27.2-23.8-44-3.7-20.9,3.4-41.8,17.1-57.6.2-.3,0-.8-.3-.8h-20c-2.4,0-3.8-.4-5.7,1.1-5,4.1-9.2,9.9-12.5,15.4-15.3,25.5-11.6,55.6,5.6,79.1,17.7,24.2,44.3,39,64.2,61,10.3,11.4,15.7,24.6,13.6,40.1-1.9,13.7-8.5,26.4-16.3,37.7-16,23.2-37.3,42.3-56.4,62.9s-37.2,42.9-47.8,69.2c-19.8,49.4-9.5,106.6,18.7,150.5,14.2,22.1,32.9,41.2,54.6,56.1,2.8,1.9,5.6,3.7,8.5,5.5,2.8,1.7,6.5,4.9,9.7,5.6,1.5.3,3.5,0,5.1,0h29.9c.4,0,.6-.6.2-.8-32.7-17.6-61.3-42-80.3-74.2-16.8-28.5-26.1-61.6-25.9-94.7.1-18.6,3.4-37,9.7-54.5h0c12-31.9,35.1-57.4,58.3-81.7,17.5-18.3,36.3-36,49.8-57.5v-.2Z"/>
  </g>
</svg>