<?xml version="1.0" encoding="UTF-8"?>
<svg id="Capa_2" data-name="Capa 2" xmlns="http://www.w3.org/2000/svg" viewBox="0 0 290.44 584.33">
  <defs>
    <style>
      .cls-1 {
        fill: #fff;
        stroke-width: 0px;
      }
    </style>
  </defs>
  <g id="Capa_1-2" data-name="Capa 1-2">
    <path class="cls-1" d="M40.03,359.73c12.71-34.46,38.67-61.33,64.31-87.99,26.65-27.71,79.25-77.51,45.68-115.53-26.14-29.61-64.71-48.19-78.67-86.46-6.98-19.13-4.65-39.68,5.6-57.33,2.54-4.38,5.46-8.31,8.63-11.9h-24.33c-7.23,6.48-13.23,14.42-17.55,24.13-10.2,22.94-6.54,47.31,7.94,68.29,13.42,19.43,33.24,34,51.24,49.52,13.62,11.75,27.44,24.86,28.74,43.08,2.62,36.81-35.16,72.27-59.37,97.44-30.2,31.4-59.1,62.82-68.24,105.38-15.47,72.07,21.28,147.3,85.51,188.15,4.03,2.57,8.15,4.95,12.3,7.25h34.91c-17.11-9.16-33.05-20.15-47.26-33.19-52.13-47.85-73.32-126.08-49.44-190.83"/>
    <path class="cls-1" d="M40.46,359.85c11.98-31.92,35.09-57.43,58.32-81.68,17.5-18.27,36.28-35.98,49.81-57.55,11.81-18.83,18.85-42.43,4.16-61.8-8.07-10.63-18.87-19.44-28.99-28.03-10.69-9.09-21.62-18.02-31.15-28.37-11.37-12.34-20.87-27.2-23.82-43.97-3.68-20.86,3.42-41.81,17.11-57.63.25-.29.09-.77-.32-.77h-20.02c-2.44,0-3.82-.42-5.66,1.07-5,4.07-9.2,9.91-12.49,15.39-15.3,25.46-11.61,55.63,5.59,79.1,17.73,24.18,44.3,39.03,64.18,61.02,10.28,11.37,15.73,24.65,13.57,40.07-1.92,13.74-8.55,26.38-16.32,37.68-15.97,23.25-37.32,42.32-56.4,62.91-19.09,20.6-37.25,42.85-47.79,69.17-19.76,49.37-9.52,106.61,18.72,150.51,14.21,22.1,32.92,41.24,54.57,56.09,2.77,1.9,5.6,3.73,8.46,5.49,2.79,1.71,6.52,4.87,9.71,5.61,1.53.35,3.53.02,5.08.02h29.94c.44,0,.63-.63.23-.84-32.7-17.64-61.32-42.02-80.34-74.22-16.85-28.51-26.14-61.58-25.9-94.74.14-18.61,3.38-37.07,9.75-54.55.2-.54-.67-.78-.87-.24-16.29,44.77-11.41,95.22,9.55,137.63,10.92,22.09,26.15,41.81,44.81,57.91,10.58,9.13,22.04,17.2,34.1,24.25,2.07,1.22,6.35,4.6,8.57,3.9-.58.18-1.48,0-2.07,0h-30.53c-3.84,0-6.96-2.73-10.2-4.68-5.5-3.31-10.83-6.89-15.98-10.71-20.53-15.26-38.09-34.51-51.25-56.46C.89,468.62-7.86,413.87,11.11,366.72c20.2-50.21,65.54-81.78,97.81-123.3,13.3-17.1,26.74-39.47,22.62-62.13-2.1-11.57-9.4-21.18-17.54-29.3-9.58-9.55-20.38-17.83-30.65-26.61-21.78-18.63-43.88-41.23-44.95-71.67-.51-14.36,4.02-28.59,12.13-40.39,2.11-3.06,4.47-5.96,7.04-8.64,1.24-1.29,2.69-3.28,4.33-3.73,2.55-.7,6.24,0,8.87,0h11.5c.62,0,2.44-.35,2.95,0,.52.35-.88.53-1.51,1.06-.96.81-1.81,2.24-2.57,3.26-7.94,10.64-12.97,23.48-14.02,36.74-1.95,24.66,10.88,46.67,27.5,63.83,16.63,17.17,36.68,30.66,52.91,48.25,7.79,8.44,12.98,18.25,12.9,29.97-.08,10.77-4.13,21.15-9.28,30.45-10.67,19.28-26.29,35.42-41.53,51.12-18.2,18.75-36.83,37.52-51.66,59.15-7.45,10.87-13.73,22.47-18.36,34.82-.21.54.67.78.87.24"/>
    <path class="cls-1" d="M104.59,359.73c12.71-34.46,38.67-61.33,64.31-87.99,26.65-27.71,79.25-77.51,45.68-115.53-26.14-29.61-64.71-48.19-78.67-86.46-6.98-19.13-4.65-39.68,5.6-57.33,2.54-4.38,5.46-8.31,8.63-11.9h-24.33c-7.23,6.48-13.23,14.42-17.55,24.13-10.2,22.94-6.54,47.31,7.94,68.29,13.42,19.43,33.24,34,51.24,49.52,13.62,11.75,27.44,24.86,28.74,43.08,2.62,36.81-35.16,72.27-59.37,97.44-30.2,31.4-59.1,62.82-68.24,105.38-15.47,72.07,21.28,147.3,85.51,188.15,4.03,2.57,8.15,4.95,12.3,7.25h34.91c-17.11-9.16-33.05-20.15-47.26-33.19-52.13-47.85-73.32-126.08-49.44-190.83"/>
    <path class="cls-1" d="M105.02,359.85c11.98-31.92,35.09-57.43,58.32-81.68,17.5-18.27,36.28-35.98,49.81-57.55,11.81-18.83,18.85-42.43,4.16-61.8-8.07-10.63-18.87-19.44-28.99-28.03-10.69-9.09-21.62-18.02-31.15-28.37-11.37-12.34-20.87-27.2-23.82-43.97-3.68-20.86,3.42-41.81,17.11-57.63.25-.29.09-.77-.32-.77h-20.02c-2.44,0-3.82-.42-5.66,1.07-5,4.07-9.2,9.91-12.49,15.39-15.3,25.46-11.61,55.63,5.59,79.1,17.73,24.18,44.3,39.03,64.18,61.02,10.28,11.37,15.73,24.65,13.57,40.07-1.92,13.74-8.55,26.38-16.32,37.68-15.97,23.25-37.32,42.32-56.4,62.91-19.09,20.6-37.25,42.85-47.79,69.17-19.76,49.37-9.52,106.61,18.72,150.51,14.21,22.1,32.92,41.24,54.57,56.09,2.77,1.9,5.6,3.73,8.46,5.49,2.79,1.71,6.52,4.87,9.71,5.61,1.53.35,3.53.02,5.08.02h29.94c.44,0,.63-.63.23-.84-32.7-17.64-61.32-42.02-80.34-74.22-16.85-28.51-26.14-61.58-25.9-94.74.14-18.61,3.38-37.07,9.75-54.55.2-.54-.67-.78-.87-.24-16.29,44.77-11.41,95.22,9.55,137.63,10.92,22.09,26.15,41.81,44.81,57.91,10.58,9.13,22.04,17.2,34.1,24.25,2.07,1.22,6.35,4.6,8.57,3.9-.58.18-1.48,0-2.07,0h-30.53c-3.84,0-6.96-2.73-10.2-4.68-5.5-3.31-10.83-6.89-15.98-10.71-20.53-15.26-38.09-34.51-51.25-56.46-25.69-42.82-34.43-97.57-15.46-144.73,20.2-50.21,65.54-81.78,97.81-123.3,13.3-17.1,26.74-39.47,22.62-62.13-2.1-11.57-9.4-21.18-17.54-29.3-9.58-9.55-20.38-17.83-30.65-26.61-21.78-18.63-43.88-41.23-44.95-71.67-.51-14.36,4.02-28.59,12.13-40.39,2.11-3.06,4.47-5.96,7.04-8.64,1.24-1.29,2.69-3.28,4.33-3.73,2.55-.7,6.24,0,8.87,0h11.5c.62,0,2.44-.35,2.95,0,.52.35-.88.53-1.51,1.06-.96.81-1.81,2.24-2.57,3.26-7.94,10.64-12.97,23.48-14.02,36.74-1.95,24.66,10.88,46.67,27.5,63.83,16.63,17.17,36.68,30.66,52.91,48.25,7.79,8.44,12.98,18.25,12.9,29.97-.08,10.77-4.13,21.15-9.28,30.45-10.67,19.28-26.29,35.42-41.53,51.12-18.2,18.75-36.83,37.52-51.66,59.15-7.45,10.87-13.73,22.47-18.36,34.82-.21.54.67.78.87.24"/>
    <path class="cls-1" d="M169.44,359.73c12.71-34.46,38.67-61.33,64.31-87.99,26.65-27.71,79.25-77.51,45.68-115.53-26.14-29.61-64.71-48.19-78.67-86.46-6.98-19.13-4.65-39.68,5.6-57.33,2.54-4.38,5.46-8.31,8.63-11.9h-24.33c-7.23,6.48-13.23,14.42-17.55,24.13-10.2,22.94-6.54,47.31,7.94,68.29,13.42,19.43,33.24,34,51.24,49.52,13.62,11.75,27.44,24.86,28.74,43.08,2.62,36.81-35.16,72.27-59.37,97.44-30.2,31.4-59.1,62.82-68.24,105.38-15.47,72.07,21.28,147.3,85.51,188.15,4.03,2.57,8.15,4.95,12.3,7.25h34.91c-17.11-9.16-33.05-20.15-47.26-33.19-52.13-47.85-73.32-126.08-49.44-190.83"/>
    <path class="cls-1" d="M169.87,359.85c11.98-31.92,35.09-57.43,58.32-81.68,17.5-18.27,36.28-35.98,49.81-57.55,11.81-18.83,18.85-42.43,4.16-61.8-8.07-10.63-18.87-19.44-28.99-28.03-10.69-9.09-21.62-18.02-31.15-28.37-11.37-12.34-20.87-27.2-23.82-43.97-3.68-20.86,3.42-41.81,17.11-57.63.25-.29.09-.77-.32-.77h-20.02c-2.44,0-3.82-.42-5.66,1.07-5,4.07-9.2,9.91-12.49,15.39-15.3,25.46-11.61,55.63,5.59,79.1,17.73,24.18,44.3,39.03,64.18,61.02,10.28,11.37,15.73,24.65,13.57,40.07-1.92,13.74-8.55,26.38-16.32,37.68-15.97,23.25-37.32,42.32-56.4,62.91-19.09,20.6-37.25,42.85-47.79,69.17-19.76,49.37-9.52,106.61,18.72,150.51,14.21,22.1,32.92,41.24,54.57,56.09,2.77,1.9,5.6,3.73,8.46,5.49,2.79,1.71,6.52,4.87,9.71,5.61,1.53.35,3.53.02,5.08.02h29.94c.44,0,.63-.63.23-.84-32.7-17.64-61.32-42.02-80.34-74.22-16.85-28.51-26.14-61.58-25.9-94.74.14-18.61,3.38-37.07,9.75-54.55.2-.54-.67-.78-.87-.24-16.29,44.77-11.41,95.22,9.55,137.63,10.92,22.09,26.15,41.81,44.81,57.91,10.58,9.13,22.04,17.2,34.1,24.25,2.07,1.22,6.35,4.6,8.57,3.9-.58.18-1.48,0-2.07,0h-30.53c-3.84,0-6.96-2.73-10.2-4.68-5.5-3.31-10.83-6.89-15.98-10.71-20.53-15.26-38.09-34.51-51.25-56.46-25.69-42.82-34.43-97.57-15.46-144.73,20.2-50.21,65.54-81.78,97.81-123.3,13.3-17.1,26.74-39.47,22.62-62.13-2.1-11.57-9.4-21.18-17.54-29.3-9.58-9.55-20.38-17.83-30.65-26.61-21.78-18.63-43.88-41.23-44.95-71.67-.51-14.36,4.02-28.59,12.13-40.39,2.11-3.06,4.47-5.96,7.04-8.64,1.24-1.29,2.69-3.28,4.33-3.73,2.55-.7,6.24,0,8.87,0h11.5c.62,0,2.44-.35,2.95,0,.52.35-.88.53-1.51,1.06-.96.81-1.81,2.24-2.57,3.26-7.94,10.64-12.97,23.48-14.02,36.74-1.95,24.66,10.88,46.67,27.5,63.83,16.63,17.17,36.68,30.66,52.91,48.25,7.79,8.44,12.98,18.25,12.9,29.97-.08,10.77-4.13,21.15-9.28,30.45-10.67,19.28-26.29,35.42-41.53,51.12-18.2,18.75-36.83,37.52-51.66,59.15-7.45,10.87-13.73,22.47-18.36,34.82-.21.54.67.78.87.24"/>
  </g>
</svg>